<?xml version="1.0" encoding="utf-8"?>
<!-- Generator: Adobe Illustrator 19.0.0, SVG Export Plug-In . SVG Version: 6.00 Build 0)  -->
<svg version="1.1" id="圖層_1" xmlns="http://www.w3.org/2000/svg" xmlns:xlink="http://www.w3.org/1999/xlink" x="0px" y="0px"
	 viewBox="0 0 500 500" style="enable-background:new 0 0 500 500;" xml:space="preserve">
<style type="text/css">
	.st0{fill:#114DA0;}
	.st1{fill:#44ADE0;}
	.st2{fill:#FFFFFF;}
</style>
<g id="XMLID_15_">
	<path id="XMLID_13_" class="st0" d="M343.9,310.9c-11.7-2.2-23.5-2.5-35.4-1.4c-7,0.6-7.6,1.6-3.7,7.9
		c11.3,18.2,35.7,25.3,54.8,15.8c9.1-4.5,15.3-11.7,19.8-21.7v0C366.9,313,355.4,313.1,343.9,310.9z"/>
	<path id="XMLID_12_" class="st0" d="M174.4,231.9c0.5-0.5,4.2-4,5-3.7c-9.8-4.7-16.1-11.5-20-20.4c-1.7-3.8-2.4-7.9-0.3-11.9
		c1.1-2.2,2.8-3.6,5.4-3.2c2.3,0.3,3.6,1.9,4,4.1c2.1,12.2,10.7,18.5,21.3,22.2c10.4,3.6,20.9,3.8,30.6-2.6c3.4-2.2,4.5-4.3,1.1-8.2
		c-10.9-12.2-15.7-28.9-14.4-45c1.3-16.4,8.4-32.1,21.4-42.4c6.4-5.1,11.8-10,16-17.1c3.8-6.3,5.5-13.9,11.8-18.5
		c0.7-0.5,1.6-1.1,1.7-2c0.3-1.9-6.7-1.8-8-1.9c-5.4-0.4-10.8,0.1-15.9,1.8c-18.3,6.1-30.7,23.9-42.8,43.1c-1.2,1.9-3.3,3.1-5.6,3.1
		h-0.9c-2.3,0-4.4-1.2-5.6-3.1c-12.1-19.3-24.5-37.1-42.8-43.1c-4.2-1.4-8.6-2-13.1-2c-12.9,0-26.3,5.6-36,15.6
		c-12.1,12.4-18.7,31.5-17.7,51.1c0.9,17.4,7.5,35.9,19,53.6c8,12.2,18.2,24.2,33,38.8c5.1,5,10.1,10.2,15,15.3
		c3.2,3.3,6.4,6.6,9.6,9.9c1.6,1.7,3.3,3.3,4.9,4.9c1,1,1.9,2.1,3,3.1c1.2,1.1,1.6,1.5,2-0.1c0.6-2.7,0.3-5.9,0.8-8.7
		c0.7-4.2,1.9-8.4,3.5-12.4c0.6-1.4,1.2-2.8,1.9-4.2c2-4,4.5-7.8,7.5-11.3C171.2,235.1,172.8,233.4,174.4,231.9z"/>
	<path id="XMLID_11_" class="st1" d="M390.1,166.8c-4-0.6-6.2-2.2-6.2-6c0-4.1,3.1-5.4,6.7-5.6c1.4-0.1,2.9-0.2,4.3,0.1
		c6.3,1.5,5.6-1.4,4-5.7c-8.9-23.5-35.8-38-60.2-32c-14.1,3.5-25.5,10.9-31.5,24.9c-0.4,0.9-0.7,1.8-0.9,2.6
		c-0.2,0.8-0.2,1.6-0.1,2.3c0.3,1.4,1.3,2.6,3.4,3.7c2.6,1.3,4.4,3.6,5.5,6.4c1,2.4,1.7,5-0.1,7c-2,2.1-4.1-0.1-6.1-0.8
		c-1.5-0.5-2.8-1.3-4.2-2c-0.1,0-0.1-0.1-0.2-0.1c-4.2-1.9-8.5-2.9-12.7-2.9c-9.2,0-17.9,4.6-23.3,13c-2.1,3.2-4,6-8.2,3.7
		c-4.2-2.3-3.1-5.9-1.5-9.1c5.9-11.5,15.5-18.3,28.4-19.7c3-0.3,4.8-0.6,5.9-3.7c0.1-0.2,0.1-0.3,0.2-0.5
		c2.2-7.8,5.8-14.4,10.5-19.8c6.5-7.5,15.1-12.9,25.6-16.3c1.4-0.5,3.2-0.4,3.9-2.2c0,0,0,0,0,0C322.4,93,304,88.7,287.6,90.6
		c-5.2,0.6-10.3,1.9-14.8,3.7c0,0-0.1-0.1-0.1-0.1c0.1,0.1,0.1,0.1,0.1,0.1c-7.3,3-13.2,7.6-16.5,13.8c0.8,0.3,1.5,0.5,2.3,0.8
		c2.6,0.8,5.2,1.5,4.9,5.1c-0.3,3.6-2.1,5.7-5.9,6.4c-2.7,0.5-5.2,1.3-7.8,2.3c-15.7,6-24.9,17.7-28.1,33.9
		c-3.5,17.7,0.1,33.8,13.4,46.8c4,4,8.7,5.6,14.4,2.5c3.7-2,8-3,11.9-4.8c3.5-1.6,6.7-1.9,10.6-0.9c0.9,0.2,1.7,0.4,2.6,0.5
		c5.6,1,11.1,0.8,16.2-1.4c2.5-1.1,4.8-2.5,7.1-4.6c1.9-1.7,4.4-3.8,7.1-1.7c2.9,2.3,1.3,5.2,0.1,7.8c-2,4.2-5.4,7.2-9.3,9.5
		c-4.5,2.6-9.4,3.9-14.4,3.9c-1.3,0-2.6,0-3.9-0.1c-4.3-0.4-8.5-0.3-12.6,0.3c-5.9,0.9-11.6,2.8-16.9,5.8
		c-15,8.6-30.6,13.2-48.1,14.3c-18.4,1.2-40.1,26.5-23.9,52c2.2,3.5,4.9,6.6,7.8,9.2c3.4,3.1,7.3,5.6,11.5,7.5
		c2.4,1.1,4.9,2,7.5,2.7c28.4,7.7,55.4,3.6,81.3-9.9c3-1.5,5.7-4.6,9.5-3c3.6,1.6,7.2,1.1,10.9,1c12.8-0.3,25.7-3,38.5,0.2
		c9.9,2.4,19.8,2.7,29.9,2c12.9-0.9,24.3-5.4,33.6-14.5c6.8-6.7,10.2-14.8,11.6-25l0,0c-5.9,3-11,5-16.5,5.4
		c-3.5,0.2-7.4,0.1-7.8-4.7c-0.4-4.3,2.1-6.1,6.4-6.8c7.2-1.1,14-4.5,18.6-10.2C439.7,214.2,423.1,172.1,390.1,166.8z"/>
	<path id="XMLID_23_" d="M424,166.6c-3.5-3.4-5.6-6.7-6.5-11.7c-5.6-28.5-31-51.3-60-54.5c-2.5-0.3-4.5-0.5-6.5-2.6
		C330.6,77,306,70.5,278.1,76.5c-14.9-8.5-32.7-10.9-48.2-5.8c-19.7,6.5-32.8,22.5-44.7,40.7c-12-18.2-25.1-34.2-44.7-40.7
		c-20.9-6.9-46.1-0.2-62.7,16.8C63,102.8,55.2,125,56.4,148.5c1,19.7,8.3,40.5,21.1,60.1c8.5,13.1,19.3,25.7,34.8,41
		c5,4.9,9.9,10,14.7,15c7.1,7.3,14.4,14.9,22.1,22.1c10,9.2,19.7,19.2,31.2,26.5c24.2,15.5,52.9,14.2,79.9,9
		c6.9-1.3,13.9-5.1,20.5-7.6c1.2-0.5,2.5-0.9,3.8-0.9c2.9,0,2.9,1.8,3.9,3.9c5.7,12.8,14.4,22.5,26.9,29.1
		c29.7,15.9,67.5,0.6,79.2-32.1c2-5.5,4.9-8.6,9.8-11.4c19.5-11.4,29.8-28.6,30.2-51.3c0.1-4.2,1-7.8,2.9-11.6
		C449.5,216.1,443.9,185.5,424,166.6z M162.3,248.1c-0.7,1.4-1.3,2.8-1.9,4.2c-1.6,4-2.8,8.1-3.5,12.4c-0.5,2.8-0.1,6-0.8,8.7
		c-0.4,1.6-0.8,1.1-2,0.1c-1.1-1-2-2.1-3-3.1c-1.7-1.6-3.3-3.3-4.9-4.9c-3.2-3.3-6.4-6.6-9.6-9.9c-4.9-5.1-9.9-10.3-15-15.3
		c-14.9-14.6-25-26.6-33-38.8c-11.5-17.7-18.1-36.2-19-53.6c-1-19.6,5.6-38.7,17.7-51.1c9.7-10,23.1-15.6,36-15.6
		c4.5,0,8.9,0.7,13.1,2c18.3,6.1,30.7,23.9,42.8,43.1c1.2,1.9,3.3,3.1,5.6,3.1h0.9c2.3,0,4.4-1.2,5.6-3.1
		c12.1-19.3,24.5-37.1,42.8-43.1c5.1-1.7,10.5-2.2,15.9-1.8c1.3,0.1,8.3,0,8,1.9c-0.2,0.9-1,1.5-1.7,2c-6.3,4.5-8,12.1-11.8,18.5
		c-4.2,7.1-9.6,12-16,17.1c-13,10.3-20.1,26-21.4,42.4c-1.2,16.2,3.5,32.8,14.4,45c3.5,3.9,2.3,6-1.1,8.2
		c-9.7,6.4-20.2,6.2-30.6,2.6c-10.6-3.7-19.2-10-21.3-22.2c-0.4-2.2-1.6-3.8-4-4.1c-2.6-0.4-4.3,1.1-5.4,3.2c-2,4-1.3,8,0.3,11.9
		c3.9,8.9,10.2,15.7,20,20.4c-0.8-0.4-4.4,3.2-5,3.7c-1.7,1.5-3.2,3.2-4.7,4.9C166.8,240.3,164.3,244.1,162.3,248.1z M359.7,333.2
		c-19.1,9.5-43.5,2.4-54.8-15.8c-3.9-6.3-3.4-7.3,3.7-7.9c11.9-1.1,23.6-0.8,35.4,1.4c11.5,2.2,23,2.1,35.6,0.6v0
		C375,321.6,368.8,328.7,359.7,333.2z M418.5,240.6c-4.6,5.7-11.4,9.1-18.6,10.2c-4.2,0.6-6.7,2.5-6.4,6.8c0.4,4.8,4.3,5,7.8,4.7
		c5.5-0.4,10.7-2.4,16.5-5.4l0,0c-1.4,10.2-4.8,18.3-11.6,25c-9.3,9.1-20.7,13.6-33.6,14.5c-10,0.7-20,0.4-29.9-2
		c-12.8-3.2-25.7-0.5-38.5-0.2c-3.7,0.1-7.3,0.6-10.9-1c-3.8-1.7-6.5,1.4-9.5,3c-25.9,13.4-53,17.6-81.3,9.9
		c-2.6-0.7-5.1-1.6-7.5-2.7c-4.2-1.9-8.1-4.4-11.5-7.5c-2.9-2.6-5.5-5.7-7.8-9.2c-16.2-25.5,5.5-50.9,23.9-52
		c17.5-1.1,33.1-5.7,48.1-14.3c5.3-3.1,11-5,16.9-5.8c4.1-0.6,8.3-0.7,12.6-0.3c1.3,0.1,2.6,0.2,3.9,0.1c5-0.1,9.9-1.3,14.4-3.9
		c4-2.3,7.3-5.3,9.3-9.5c1.2-2.6,2.9-5.5-0.1-7.8c-2.7-2.1-5.1-0.1-7.1,1.7c-2.3,2-4.6,3.5-7.1,4.6c-5.1,2.2-10.6,2.4-16.2,1.4
		c-0.9-0.2-1.7-0.3-2.6-0.5c-3.9-1-7.1-0.7-10.6,0.9c-3.9,1.8-8.2,2.7-11.9,4.8c-5.7,3.1-10.4,1.5-14.4-2.5
		c-13.2-13-16.8-29.2-13.4-46.8c3.2-16.2,12.5-27.9,28.1-33.9c2.5-1,5.1-1.8,7.8-2.3c3.7-0.7,5.6-2.7,5.9-6.4
		c0.3-3.6-2.3-4.3-4.9-5.1c-0.8-0.2-1.5-0.5-2.3-0.8c3.3-6.2,9.3-10.8,16.5-13.8c0,0-0.1,0-0.1-0.1c0,0,0.1,0.1,0.1,0.1
		c4.5-1.9,9.5-3.1,14.8-3.7c16.4-2,34.9,2.4,45.7,13.4c0,0,0,0,0,0c-0.7,1.8-2.5,1.7-3.9,2.2c-10.5,3.5-19.1,8.8-25.6,16.3
		c-4.7,5.4-8.2,12-10.5,19.8c-0.1,0.2-0.1,0.3-0.2,0.5c-1.1,3.1-3,3.4-5.9,3.7c-12.9,1.4-22.5,8.1-28.4,19.7
		c-1.6,3.1-2.8,6.8,1.5,9.1c4.2,2.3,6.1-0.5,8.2-3.7c5.4-8.4,14.1-13,23.3-13c4.2,0,8.5,0.9,12.7,2.9c0.1,0,0.1,0.1,0.2,0.1
		c1.4,0.7,2.8,1.5,4.2,2c2,0.7,4.1,2.9,6.1,0.8c1.9-2,1.1-4.6,0.1-7c-1.1-2.7-2.9-5.1-5.5-6.4c-2.1-1-3.1-2.3-3.4-3.7
		c-0.1-0.7-0.1-1.5,0.1-2.3c0.2-0.8,0.5-1.7,0.9-2.6c6-14,17.3-21.4,31.5-24.9c24.4-6,51.3,8.6,60.2,32c1.6,4.2,2.3,7.2-4,5.7
		c-1.4-0.3-2.9-0.2-4.3-0.1c-3.6,0.2-6.7,1.5-6.7,5.6c0,3.8,2.2,5.4,6.2,6C423.1,172.1,439.7,214.2,418.5,240.6z"/>
	<path id="XMLID_6_" d="M379.7,372.7h-77.3c-3.6,0-6.6-3-6.6-6.6c0-3.6,3-6.6,6.6-6.6h77.3c3.6,0,6.6,3,6.6,6.6
		C386.3,369.8,383.3,372.7,379.7,372.7z"/>
	<path id="XMLID_5_" d="M379.7,391.4h-77.3c-3.6,0-6.6-3-6.6-6.6s3-6.6,6.6-6.6h77.3c3.6,0,6.6,3,6.6,6.6S383.3,391.4,379.7,391.4z"
		/>
	<path id="XMLID_4_" d="M375.2,397.7c0,18.9-15.3,34.2-34.2,34.2s-34.2-15.3-34.2-34.2H375.2z"/>
	<path id="XMLID_3_" d="M262.5,266c-3.6-0.9-6.8,0.2-10,2.5c-4.9,3.6-10.7,3.9-16.6,3.1c-2.4-0.3-4.4-1.4-5.7-3.5
		c-0.9-1.4-0.9-2.9-0.2-4.4c0.9-1.7,2.4-1.8,4-1.3c7.3,2.1,13.2,0,17.9-5.9c1.5-1.9,3-1.7,5.1-1.3c11.8,2.4,21.6-0.6,28.8-10.7
		c1.4-2,2.8-3,5.2-2c3.5,1.4,7.1,1.1,10.8,0.8c9-0.5,17.9-0.6,26.9,1.1c12.8,2.4,24.5-0.3,32.7-11.7c3.5-4.8,5.2-10.2,4.7-16.2
		c-0.3-3.1,0.5-5.5,3.9-5.9c3.6-0.5,4.6,2.2,5,5c2.2,13.4-3.1,23.7-13.6,31.5c-10.2,7.6-21.8,10.3-34.3,7.7c-7-1.4-14-1.8-21.2-1.7
		c-8.1,0.1-15.3,1.4-21.9,6.8C278,264.9,270.3,265.9,262.5,266z"/>
	<g id="XMLID_16_">
		<path id="XMLID_2_" class="st2" d="M106.1,180.2c-1.4,0-2.7-0.7-3.4-2c-12.4-21.3-15.6-39.7-9.5-54.6
			c7.9-19.3,28.4-25.2,29.3-25.4c2.1-0.6,4.2,0.7,4.8,2.7c0.6,2.1-0.7,4.2-2.7,4.8c-0.3,0.1-17.8,5.2-24.2,20.9
			c-5.1,12.5-2,28.5,9.1,47.6c1.1,1.9,0.5,4.3-1.4,5.4C107.4,180.1,106.7,180.2,106.1,180.2z"/>
		<circle id="XMLID_1_" class="st2" cx="138.3" cy="102.1" r="3.4"/>
	</g>
</g>
</svg>
